<?xml version="1.0" encoding="utf-8" ?>
<svg baseProfile="tiny" height="116.085823934" version="1.2" width="257.818103934" xmlns="http://www.w3.org/2000/svg" xmlns:ev="http://www.w3.org/2001/xml-events" xmlns:xlink="http://www.w3.org/1999/xlink"><defs /><g id="paths" stroke="green"><path d="M 4.893306967,111.192516967 L 252.924796967,111.192516967 L 252.924796967,4.893306967 L 4.893306967,4.893306967 L 4.893306967,111.192516967 Z" fill-opacity="0" stroke-linejoin="round" stroke-width="1.0" /></g><g fill="red" id="top_parts" stroke="red"><line stroke-linecap="round" stroke-width="0.5" x1="204.1866" x2="247.6276" y1="84.972" y2="84.972" /><line stroke-linecap="round" stroke-width="0.5" x1="247.6276" x2="247.6276" y1="84.972" y2="94.539" /><line stroke-linecap="round" stroke-width="0.5" x1="247.6276" x2="204.1866" y1="94.539" y2="94.539" /><line stroke-linecap="round" stroke-width="0.5" x1="204.1866" x2="204.1866" y1="94.539" y2="84.972" /><text font-family="monospace" font-size="2" stroke-width="0.1" text-anchor="middle" x="225.907081092" y="89.755509617">R5</text><line stroke-linecap="round" stroke-width="0.5" x1="113.0528" x2="156.4937" y1="84.972" y2="84.972" /><line stroke-linecap="round" stroke-width="0.5" x1="156.4937" x2="156.4937" y1="84.972" y2="94.539" /><line stroke-linecap="round" stroke-width="0.5" x1="156.4937" x2="113.0528" y1="94.539" y2="94.539" /><line stroke-linecap="round" stroke-width="0.5" x1="113.0528" x2="113.0528" y1="94.539" y2="84.972" /><text font-family="monospace" font-size="2" stroke-width="0.1" text-anchor="middle" x="134.773225052" y="89.755509617">R7</text><line stroke-linecap="round" stroke-width="0.5" x1="240.2575" x2="240.2575" y1="9.8575" y2="52.0157" /><line stroke-linecap="round" stroke-width="0.5" x1="240.2575" x2="227.8559" y1="52.0157" y2="52.0157" /><line stroke-linecap="round" stroke-width="0.5" x1="227.8559" x2="227.8559" y1="52.0157" y2="9.8575" /><line stroke-linecap="round" stroke-width="0.5" x1="227.8559" x2="240.2575" y1="9.8575" y2="9.8575" /><text font-family="monospace" font-size="2" stroke-width="0.1" text-anchor="middle" x="234.056687192" y="30.936613417">R10</text><text font-family="monospace" font-size="2" stroke-width="0.1" text-anchor="middle" x="143.082279967" y="38.377558117">Q3</text><line stroke-linecap="round" stroke-width="0.5" x1="166.5567" x2="166.5567" y1="10.1232" y2="52.2815" /><line stroke-linecap="round" stroke-width="0.5" x1="166.5567" x2="154.1551" y1="52.2815" y2="52.2815" /><line stroke-linecap="round" stroke-width="0.5" x1="154.1551" x2="154.1551" y1="52.2815" y2="10.1232" /><line stroke-linecap="round" stroke-width="0.5" x1="154.1551" x2="166.5567" y1="10.1232" y2="10.1232" /><text font-family="monospace" font-size="2" stroke-width="0.1" text-anchor="middle" x="160.355901592" y="31.202361442">R8</text><text font-family="monospace" font-size="2" stroke-width="0.1" text-anchor="middle" x="143.082279967" y="67.344092842">C6</text><line stroke-linecap="round" stroke-width="0.5" x1="203.6728" x2="203.6728" y1="9.7689" y2="51.9272" /><line stroke-linecap="round" stroke-width="0.5" x1="203.6728" x2="191.2713" y1="51.9272" y2="51.9272" /><line stroke-linecap="round" stroke-width="0.5" x1="191.2713" x2="191.2713" y1="51.9272" y2="9.7689" /><line stroke-linecap="round" stroke-width="0.5" x1="191.2713" x2="203.6728" y1="9.7689" y2="9.7689" /><text font-family="monospace" font-size="2" stroke-width="0.1" text-anchor="middle" x="197.472042417" y="30.848030742">R9</text><line stroke-linecap="round" stroke-width="0.5" x1="80.4579" x2="122.6161" y1="7.9051" y2="7.9051" /><line stroke-linecap="round" stroke-width="0.5" x1="122.6161" x2="122.6161" y1="7.9051" y2="20.3067" /><line stroke-linecap="round" stroke-width="0.5" x1="122.6161" x2="80.4579" y1="20.3067" y2="20.3067" /><line stroke-linecap="round" stroke-width="0.5" x1="80.4579" x2="80.4579" y1="20.3067" y2="7.9051" /><text font-family="monospace" font-size="2" stroke-width="0.1" text-anchor="middle" x="101.537005392" y="14.105905167">R3</text><text font-family="monospace" font-size="2" stroke-width="0.1" text-anchor="middle" x="222.186608742" y="67.787006217">C5</text><text font-family="monospace" font-size="2" stroke-width="0.1" text-anchor="middle" x="180.375586142" y="67.787006217">C4</text><line stroke-linecap="round" stroke-width="0.5" x1="241.3382" x2="241.3382" y1="53.6315" y2="16.2142" /><line stroke-linecap="round" stroke-width="0.5" x1="241.3382" x2="251.0468" y1="16.2142" y2="16.2142" /><line stroke-linecap="round" stroke-width="0.5" x1="251.0468" x2="251.0468" y1="16.2142" y2="53.6315" /><line stroke-linecap="round" stroke-width="0.5" x1="251.0468" x2="241.3382" y1="53.6315" y2="53.6315" /><text font-family="monospace" font-size="2" stroke-width="0.1" text-anchor="middle" x="246.192513667" y="34.922833792">J1</text><line stroke-linecap="round" stroke-width="0.5" x1="158.2122" x2="201.6531" y1="84.972" y2="84.972" /><line stroke-linecap="round" stroke-width="0.5" x1="201.6531" x2="201.6531" y1="84.972" y2="94.539" /><line stroke-linecap="round" stroke-width="0.5" x1="201.6531" x2="158.2122" y1="94.539" y2="94.539" /><line stroke-linecap="round" stroke-width="0.5" x1="158.2122" x2="158.2122" y1="94.539" y2="84.972" /><text font-family="monospace" font-size="2" stroke-width="0.1" text-anchor="middle" x="179.932672767" y="89.755509617">R6</text><line stroke-linecap="round" stroke-width="0.5" x1="25.4091" x2="58.6098" y1="17.5075" y2="17.5075" /><line stroke-linecap="round" stroke-width="0.5" x1="58.6098" x2="58.6098" y1="17.5075" y2="31.2555" /><line stroke-linecap="round" stroke-width="0.5" x1="58.6098" x2="25.4091" y1="31.2555" y2="31.2555" /><line stroke-linecap="round" stroke-width="0.5" x1="25.4091" x2="25.4091" y1="31.2555" y2="17.5075" /><text font-family="monospace" font-size="2" stroke-width="0.1" text-anchor="middle" x="42.009447792" y="24.381495467">PWR</text><line stroke-linecap="round" stroke-width="0.5" x1="80.4579" x2="122.6161" y1="24.0272" y2="24.0272" /><line stroke-linecap="round" stroke-width="0.5" x1="122.6161" x2="122.6161" y1="24.0272" y2="36.4287" /><line stroke-linecap="round" stroke-width="0.5" x1="122.6161" x2="80.4579" y1="36.4287" y2="36.4287" /><line stroke-linecap="round" stroke-width="0.5" x1="80.4579" x2="80.4579" y1="36.4287" y2="24.0272" /><text font-family="monospace" font-size="2" stroke-width="0.1" text-anchor="middle" x="101.537005392" y="30.227952017">R2</text><line stroke-linecap="round" stroke-width="0.5" x1="28.1374" x2="55.598" y1="40.6364" y2="40.6364" /><line stroke-linecap="round" stroke-width="0.5" x1="55.598" x2="55.598" y1="40.6364" y2="52.5951" /><line stroke-linecap="round" stroke-width="0.5" x1="55.598" x2="28.1374" y1="52.5951" y2="52.5951" /><line stroke-linecap="round" stroke-width="0.5" x1="28.1374" x2="28.1374" y1="52.5951" y2="40.6364" /><text font-family="monospace" font-size="2" stroke-width="0.1" text-anchor="middle" x="41.867715512" y="46.615746892">C1</text><line stroke-linecap="round" stroke-width="0.5" x1="98.2559" x2="120.9331" y1="40.9465" y2="40.9465" /><line stroke-linecap="round" stroke-width="0.5" x1="120.9331" x2="120.9331" y1="40.9465" y2="52.9937" /><line stroke-linecap="round" stroke-width="0.5" x1="120.9331" x2="98.2559" y1="52.9937" y2="52.9937" /><line stroke-linecap="round" stroke-width="0.5" x1="98.2559" x2="98.2559" y1="52.9937" y2="40.9465" /><text font-family="monospace" font-size="2" stroke-width="0.1" text-anchor="middle" x="109.59448551" y="46.970077592">C3</text><text font-family="monospace" font-size="2" stroke-width="0.1" text-anchor="middle" x="217.403144292" y="39.351967542">Q1</text><line stroke-linecap="round" stroke-width="0.5" x1="101.7142" x2="101.7142" y1="96.665" y2="53.224" /><line stroke-linecap="round" stroke-width="0.5" x1="101.7142" x2="111.2811" y1="53.224" y2="53.224" /><line stroke-linecap="round" stroke-width="0.5" x1="111.2811" x2="111.2811" y1="53.224" y2="96.665" /><line stroke-linecap="round" stroke-width="0.5" x1="111.2811" x2="101.7142" y1="96.665" y2="96.665" /><text font-family="monospace" font-size="2" stroke-width="0.1" text-anchor="middle" x="106.497635192" y="74.944486357">R4</text><text font-family="monospace" font-size="2" stroke-width="0.1" text-anchor="middle" x="179.401176717" y="38.377558117">Q2</text></g><g fill="blue" id="bottom_parts" stroke="blue" /></svg>